<svg width="69" height="20" viewBox="0 0 69 20" xmlns="http://www.w3.org/2000/svg" fill="currentColor">
  <path d="M65.3546 6.87394V9.00892H59.1831V6.87394H65.3546ZM60.5842 4.4187H63.4264V13.9728C63.4264 14.2352 63.4664 14.4398 63.5465 14.5866C63.6265 14.7289 63.7377 14.829 63.8801 14.8868C64.0269 14.9446 64.1959 14.9735 64.3871 14.9735C64.5206 14.9735 64.654 14.9624 64.7874 14.9402C64.9209 14.9135 65.0232 14.8935 65.0944 14.8801L65.5414 16.9951C65.399 17.0396 65.1989 17.0907 64.9409 17.1486C64.6829 17.2108 64.3693 17.2486 64.0002 17.262C63.3152 17.2887 62.7147 17.1975 62.1988 16.9884C61.6873 16.7794 61.2892 16.4547 61.0045 16.0143C60.7199 15.574 60.5797 15.018 60.5842 14.3464V4.4187Z"/>
  <path d="M54.7285 17.3222C53.6788 17.3222 52.7759 17.0999 52.0197 16.6551C51.268 16.2058 50.6898 15.5831 50.285 14.787C49.8847 13.9908 49.6846 13.0745 49.6846 12.0382C49.6846 10.9885 49.887 10.0677 50.2917 9.27602C50.7009 8.47985 51.2814 7.85937 52.0331 7.41458C52.7847 6.96534 53.6788 6.74072 54.7151 6.74072C55.6092 6.74072 56.392 6.90307 57.0636 7.22777C57.7353 7.55246 58.2668 8.00837 58.6582 8.59549C59.0496 9.18261 59.2653 9.87204 59.3054 10.6638H56.6233C56.5477 10.1523 56.3475 9.74082 56.0228 9.42947C55.7026 9.11367 55.2822 8.95577 54.7618 8.95577C54.3215 8.95577 53.9368 9.07586 53.6076 9.31605C53.2829 9.55179 53.0294 9.8965 52.847 10.3502C52.6647 10.8039 52.5735 11.3532 52.5735 11.9981C52.5735 12.652 52.6624 13.208 52.8403 13.6661C53.0227 14.1242 53.2785 14.4734 53.6076 14.7136C53.9368 14.9537 54.3215 15.0738 54.7618 15.0738C55.0865 15.0738 55.3779 15.0071 55.6358 14.8737C55.8983 14.7402 56.114 14.5468 56.283 14.2932C56.4565 14.0353 56.5699 13.7261 56.6233 13.3659H59.3054C59.2609 14.1487 59.0474 14.8381 58.6649 15.4341C58.2868 16.0257 57.7642 16.4883 57.097 16.8219C56.4298 17.1555 55.6403 17.3222 54.7285 17.3222Z"/>
  <path d="M46.2005 17.122V6.87407H49.0427V17.122H46.2005ZM47.6283 5.55305C47.2057 5.55305 46.8432 5.41294 46.5408 5.13272C46.2428 4.84806 46.0938 4.5078 46.0938 4.11193C46.0938 3.72052 46.2428 3.3847 46.5408 3.10449C46.8432 2.81982 47.2057 2.67749 47.6283 2.67749C48.0508 2.67749 48.4111 2.81982 48.7091 3.10449C49.0116 3.3847 49.1628 3.72052 49.1628 4.11193C49.1628 4.5078 49.0116 4.84806 48.7091 5.13272C48.4111 5.41294 48.0508 5.55305 47.6283 5.55305Z"/>
  <path d="M39.7339 17.122V6.87408H42.4894V8.66213H42.5961C42.7829 8.02608 43.0965 7.54571 43.5368 7.22101C43.9772 6.89187 44.4842 6.72729 45.058 6.72729C45.2003 6.72729 45.3538 6.73619 45.5184 6.75398C45.6829 6.77177 45.8275 6.79624 45.952 6.82737V9.34933C45.8186 9.30929 45.634 9.27371 45.3983 9.24258C45.1625 9.21144 44.9468 9.19587 44.7511 9.19587C44.333 9.19587 43.9594 9.28705 43.6302 9.46942C43.3055 9.64733 43.0476 9.89641 42.8563 10.2167C42.6695 10.5369 42.5761 10.9061 42.5761 11.3242V17.122H39.7339Z"/>
  <path d="M39.1036 6.87394V9.00892H32.9321V6.87394H39.1036ZM34.3332 4.4187H37.1754V13.9728C37.1754 14.2352 37.2154 14.4398 37.2955 14.5866C37.3756 14.7289 37.4868 14.829 37.6291 14.8868C37.7759 14.9446 37.9449 14.9735 38.1362 14.9735C38.2696 14.9735 38.403 14.9624 38.5365 14.9402C38.6699 14.9135 38.7722 14.8935 38.8434 14.8801L39.2904 16.9951C39.1481 17.0396 38.9479 17.0907 38.6899 17.1486C38.4319 17.2108 38.1184 17.2486 37.7492 17.262C37.0642 17.2887 36.4638 17.1975 35.9478 16.9884C35.4363 16.7794 35.0382 16.4547 34.7535 16.0143C34.4689 15.574 34.3288 15.018 34.3332 14.3464V4.4187Z"/>
  <path d="M32.8509 9.79642L30.2489 9.95655C30.2044 9.73415 30.1088 9.534 29.962 9.35608C29.8152 9.17372 29.6217 9.02916 29.3815 8.92241C29.1458 8.81121 28.8634 8.75562 28.5342 8.75562C28.0939 8.75562 27.7225 8.84902 27.42 9.03583C27.1176 9.2182 26.9663 9.46283 26.9663 9.76973C26.9663 10.0144 27.0642 10.2212 27.2599 10.3902C27.4556 10.5592 27.7914 10.6949 28.2673 10.7972L30.1221 11.1708C31.1184 11.3754 31.8612 11.7046 32.3505 12.1582C32.8398 12.6119 33.0844 13.208 33.0844 13.9463C33.0844 14.6179 32.8865 15.2073 32.4906 15.7143C32.0992 16.2214 31.561 16.6173 30.876 16.9019C30.1955 17.1821 29.4104 17.3222 28.5209 17.3222C27.1643 17.3222 26.0834 17.0398 25.2784 16.4749C24.4777 15.9056 24.0085 15.1317 23.8706 14.1531L26.6661 14.0063C26.7506 14.42 26.9552 14.7358 27.2799 14.9537C27.6046 15.1672 28.0205 15.274 28.5275 15.274C29.0257 15.274 29.426 15.1784 29.7285 14.9871C30.0354 14.7914 30.1911 14.5401 30.1955 14.2332C30.1911 13.9752 30.0821 13.7639 29.8686 13.5994C29.6551 13.4303 29.3259 13.3014 28.8812 13.2124L27.1064 12.8588C26.1057 12.6586 25.3606 12.3117 24.8714 11.818C24.3866 11.3243 24.1442 10.6949 24.1442 9.92986C24.1442 9.27157 24.3221 8.70446 24.6779 8.22854C25.0382 7.75262 25.543 7.38567 26.1924 7.12769C26.8462 6.86971 27.6113 6.74072 28.4875 6.74072C29.7818 6.74072 30.8004 7.01427 31.5432 7.56136C32.2905 8.10845 32.7263 8.85347 32.8509 9.79642Z"/>
  <path d="M20.4266 17.122V6.87407H23.2688V17.122H20.4266ZM21.8543 5.55305C21.4318 5.55305 21.0693 5.41294 20.7668 5.13272C20.4688 4.84806 20.3198 4.5078 20.3198 4.11193C20.3198 3.72052 20.4688 3.3847 20.7668 3.10449C21.0693 2.81982 21.4318 2.67749 21.8543 2.67749C22.2769 2.67749 22.6372 2.81982 22.9352 3.10449C23.2376 3.3847 23.3889 3.72052 23.3889 4.11193C23.3889 4.5078 23.2376 4.84806 22.9352 5.13272C22.6372 5.41294 22.2769 5.55305 21.8543 5.55305Z"/>
  <path d="M12.876 17.1219H8.03223V3.45801H12.916C14.2904 3.45801 15.4735 3.73155 16.4654 4.27864C17.4573 4.82129 18.2201 5.60189 18.7539 6.62046C19.2921 7.63902 19.5612 8.85774 19.5612 10.2766C19.5612 11.6999 19.2921 12.9231 18.7539 13.9461C18.2201 14.9691 17.4529 15.7542 16.4521 16.3013C15.4558 16.8484 14.2637 17.1219 12.876 17.1219ZM10.9211 14.6467H12.7559C13.6099 14.6467 14.3282 14.4954 14.9109 14.193C15.498 13.8861 15.9383 13.4124 16.2319 12.7719C16.5299 12.1269 16.6789 11.2952 16.6789 10.2766C16.6789 9.26695 16.5299 8.44187 16.2319 7.80137C15.9383 7.16087 15.5002 6.6894 14.9176 6.38694C14.3349 6.08449 13.6165 5.93326 12.7626 5.93326H10.9211V14.6467Z"/>
  <path d="M4.08433 6.36116C3.66178 6.36116 3.29927 6.22105 2.99682 5.94083C2.69881 5.65617 2.5498 5.3159 2.5498 4.92004C2.5498 4.52863 2.69881 4.19281 2.99682 3.91259C3.29927 3.62793 3.66178 3.4856 4.08433 3.4856C4.50688 3.4856 4.86715 3.62793 5.16516 3.91259C5.46762 4.19281 5.61885 4.52863 5.61885 4.92004C5.61885 5.3159 5.46762 5.65617 5.16516 5.94083C4.86715 6.22105 4.50688 6.36116 4.08433 6.36116Z"/>
  <path d="M4.08433 11.7415C3.66178 11.7415 3.29927 11.6014 2.99682 11.3212C2.69881 11.0365 2.5498 10.6963 2.5498 10.3004C2.5498 9.909 2.69881 9.57318 2.99682 9.29296C3.29927 9.0083 3.66178 8.86597 4.08433 8.86597C4.50688 8.86597 4.86715 9.0083 5.16516 9.29296C5.46762 9.57318 5.61885 9.909 5.61885 10.3004C5.61885 10.6963 5.46762 11.0365 5.16516 11.3212C4.86715 11.6014 4.50688 11.7415 4.08433 11.7415Z"/>
  <path d="M4.08433 17.1219C3.66178 17.1219 3.29927 16.9818 2.99682 16.7016C2.69881 16.4169 2.5498 16.0766 2.5498 15.6808C2.5498 15.2894 2.69881 14.9536 2.99682 14.6733C3.29927 14.3887 3.66178 14.2463 4.08433 14.2463C4.50688 14.2463 4.86715 14.3887 5.16516 14.6733C5.46762 14.9536 5.61885 15.2894 5.61885 15.6808C5.61885 16.0766 5.46762 16.4169 5.16516 16.7016C4.86715 16.9818 4.50688 17.1219 4.08433 17.1219Z"/>
</svg>

